inDegrees=yes
name=ik_Shooting_orientations_bogen
DataType=double
version=3
OpenSimVersion=4.3-2021-08-27-4bc7ad9
endheader
time	pelvis_tilt	pelvis_list	pelvis_rotation	pelvis_tx	pelvis_ty	pelvis_tz	hip_flexion_r	hip_adduction_r	hip_rotation_r	knee_angle_r	knee_angle_r_beta	ankle_angle_r	subtalar_angle_r	mtp_angle_r	hip_flexion_l	hip_adduction_l	hip_rotation_l	knee_angle_l	knee_angle_l_beta	ankle_angle_l	subtalar_angle_l	mtp_angle_l	lumbar_extension	lumbar_bending	lumbar_rotation	arm_flex_r	arm_add_r	arm_rot_r	elbow_flex_r	pro_sup_r	wrist_flex_r	wrist_dev_r	arm_flex_l	arm_add_l	arm_rot_l	elbow_flex_l	pro_sup_l	wrist_flex_l	wrist_dev_l
9.300000000000001	-2.027038035967192	-2.100203718353077	147.6084799503861	0	0.9399999999999999	0	44.90881295850337	-9.999803156685395	0	59.90877474861477	1.045605370198966	-4.999760668552041	0	0	44.90881295850337	-9.999803156685395	0	59.90877474861477	1.045605370198966	-4.999760668552041	0	0	1.271980409373877	0.443711589254302	-2.334823125551302	0	-14.17025174197866	0	75.0599933416201	45.00484836864365	0	0	89.66095700487111	-25.42400665860026	89.92878549122852	0.003767387741847986	45.00484836864365	0	0
9.31	-2.039802671099581	-2.096439735299537	147.5881565606539	0	0.9399999999999999	0	44.90883315524599	-9.999803309474206	0	59.90879059088168	1.045605646698684	-4.999760910871374	0	0	44.90883315524599	-9.999803309474206	0	59.90879059088168	1.045605646698684	-4.999760910871374	0	0	1.199880281706459	0.8365558813579966	-2.314656585603062	0	-14.17034565580161	0	75.05998009291379	45.00484539332319	0	0	89.57194049012416	-25.34123183858607	89.94249282030292	0.003774962164653741	45.00484539332319	0	0
9.32	-2.047081108258683	-2.095109020022915	147.5962023878162	0	0.9399999999999999	0	44.90885417729572	-9.999803468460799	0	59.90880707762541	1.045605934446646	-4.999761162972783	0	0	44.90885417729572	-9.999803468460799	0	59.90880707762541	1.045605934446646	-4.999761162972783	0	0	1.229217762798481	0.9997832163989372	-2.312246133626848	0	-14.17044340240702	0	75.05996630282061	45.00484229694901	0	0	89.61897554811529	-25.27377658799978	89.94603667610693	0.003764830297612925	45.00484229694901	0	0
9.33	-2.036062647080501	-2.090352372942457	147.5803450031268	0	0.9399999999999999	0	44.90886763399999	-9.999803569970032	0	59.90881764854911	1.045606118944069	-4.999761323831708	0	0	44.90886763399999	-9.999803569970032	0	59.90881764854911	1.045606118944069	-4.999761323831708	0	0	1.361965328043595	1.271126629665806	-2.25919169680253	0	-14.17050605009566	0	75.05995747546028	45.00484031895078	0	0	89.73887303660005	-25.73607754406567	89.95001297305798	0.003818343484029825	45.00484031895078	0	0
9.34	-2.083247643131919	-2.078812770491094	147.5865953578181	0	0.9399999999999999	0	44.90889590888614	-9.999803783701681	0	59.90883981652146	1.045606505848175	-4.999761662629094	0	0	44.90889590888614	-9.999803783701681	0	59.90883981652146	1.045606505848175	-4.999761662629094	0	0	1.325744984951845	1.379857258784124	-2.297511042742438	0	-14.17063750943721	0	75.05993892763451	45.00483615552871	0	0	89.73526982610829	-25.70783639337086	89.95226026207298	0.003811245342527351	45.00483615552871	0	0
9.35	-2.100264590820057	-2.075019322599874	147.5634565067772	0	0.9399999999999999	0	44.90892057290284	-9.999803969949001	0	59.90885915878957	1.045606843434438	-4.999761957749181	0	0	44.90892057290284	-9.999803969949001	0	59.90885915878957	1.045606843434438	-4.999761957749181	0	0	1.366786956015959	1.395366623824348	-2.263494086921457	0	-14.1707522143774	0	75.05992274847524	45.00483252651931	0	0	89.76580930825119	-25.83354208512002	89.9521203929596	0.00382127808947335	45.00483252651931	0	0
9.359999999999999	-2.094987236039228	-2.073083739594627	147.5614815992101	0	0.9399999999999999	0	44.90894562933998	-9.999804159052752	0	59.90887880824322	1.045607186382101	-4.999762257315667	0	0	44.90894562933998	-9.999804159052752	0	59.90887880824322	1.045607186382101	-4.999762257315667	0	0	1.435816382910886	1.338715258586697	-2.246039730562051	0	-14.17086875221919	0	75.05990631189508	45.00482884119593	0	0	89.79545088393876	-25.59020039401513	89.95061282667926	0.003789560513542659	45.00482884119593	0	0
9.369999999999999	-2.099544448910054	-2.074220020590665	147.5629083331435	0	0.9399999999999999	0	44.90897016763689	-9.999804344114747	0	59.90889805275105	1.045607522262125	-4.999762550391703	0	0	44.90897016763689	-9.999804344114747	0	59.90889805275105	1.045607522262125	-4.999762550391703	0	0	1.415364928084307	1.435317921668332	-2.251448855170604	0	-14.17098289647657	0	75.05989021520577	45.00482523389623	0	0	89.78489465223376	-25.44668181827023	89.95273809457223	0.003774608499275616	45.00482523389623	0	0
9.380000000000001	-2.093189071900621	-2.089658156995478	147.5515382937276	0	0.9399999999999999	0	44.90900160521301	-9.999804580859641	0	59.9089227255211	1.045607952883198	-4.999762925149391	0	0	44.90900160521301	-9.999804580859641	0	59.9089227255211	1.045607952883198	-4.999762925149391	0	0	1.629387731289336	1.045002111782412	-2.238143856095724	0	-14.1711292222707	0	75.05986959271101	45.0048206176095	0	0	89.84671862114295	-25.26147172451756	89.94334256165925	0.003736067518320661	45.0048206176095	0	0
9.390000000000001	-2.099533363470278	-2.076501964855804	147.5628588671511	0	0.9399999999999999	0	44.90902336805407	-9.999804744648747	0	59.90893980258063	1.045608250934114	-4.999763184336745	0	0	44.90902336805407	-9.999804744648747	0	59.90893980258063	1.045608250934114	-4.999763184336745	0	0	1.62213551086151	1.478834437368755	-2.248986194391369	0	-14.17123051597662	0	75.05985531667157	45.00481742320986	0	0	89.84580224736014	-25.37051483818098	89.9519708734984	0.003758392051528931	45.00481742320986	0	0
9.4	-2.119317824119909	-2.067696697078532	147.5571375268555	0	0.9399999999999999	0	44.90904623063221	-9.999804916612094	0	59.90895774368112	1.045608564065389	-4.999763456390783	0	0	44.90904623063221	-9.999804916612094	0	59.90895774368112	1.045608564065389	-4.999763456390783	0	0	1.581192084194081	1.919782226892891	-2.250227184816604	0	-14.17133694149587	0	75.05984031922399	45.00481406880641	0	0	89.83983898836442	-25.64061694453023	89.95868347325082	0.003797315865032419	45.00481406880641	0	0
9.41	-2.126752338584567	-2.063470617525966	147.5498698095825	0	0.9399999999999999	0	44.90906754292175	-9.999805076832294	0	59.90897446781414	1.045608855956574	-4.999763709805322	0	0	44.90906754292175	-9.999805076832294	0	59.90897446781414	1.045608855956574	-4.999763709805322	0	0	1.595521805083866	2.111967343635123	-2.255482767235236	0	-14.17143615657023	0	75.05982633873838	45.00481094296434	0	0	89.84353428553793	-25.75174321213828	89.96080663245267	0.003810973754336338	45.00481094296434	0	0
9.42	-2.131719136036162	-2.054631011280822	147.5514626139226	0	0.9399999999999999	0	44.90909403098197	-9.999805275950717	0	59.90899524532117	1.045609218592482	-4.999764024694575	0	0	44.90909403098197	-9.999805275950717	0	59.90899524532117	1.045609218592482	-4.999764024694575	0	0	1.596608234820011	2.227560602412332	-2.258043156983764	0	-14.17155944259523	0	75.05980896303862	45.00480705791243	0	0	89.84810917562235	-25.76886301524456	89.96203790415164	0.00381635788658323	45.00480705791243	0	0
9.43	-2.138706353320003	-2.052494693432619	147.541223125131	0	0.9399999999999999	0	44.90911806848603	-9.999805456446587	0	59.90901410770683	1.045609547803217	-4.999764310024465	0	0	44.90911806848603	-9.999805456446587	0	59.90901410770683	1.045609547803217	-4.999764310024465	0	0	1.65023586970807	2.627354727952428	-2.248455342216781	0	-14.17167136340802	0	75.05979319486032	45.0048035352221	0	0	89.85757298122587	-25.82312870821162	89.96581873065685	0.003826698275658614	45.0048035352221	0	0
